<svg xmlns="http://www.w3.org/2000/svg" width="16" height="16" fill="currentColor" viewBox="0 0 16 16">
  <path d="M13.359 11.238C11.987 12.39 10.17 13.5 8 13.5C3 13.5 0 8 0 8a15.2 15.2 0 0 1 2.124-2.771l.714.715A13.1 13.1 0 0 0 1.173 8c.653.92 2.89 4.5 6.827 4.5 1.88 0 3.483-.82 4.726-1.889z"/>
  <path d="M11.297 9.176a3.5 3.5 0 0 0-4.473-4.473l.823.823a2.5 2.5 0 0 1 2.824 2.824z"/>
  <path d="M9.879 11.172A3.5 3.5 0 0 1 4.828 6.12l.77.77a2.5 2.5 0 0 0 3.512 3.512z"/>
  <path d="M14.828 8a13 13 0 0 0-1.697-2.13C11.84 4.629 10.101 3.5 8 3.5c-.686 0-1.338.12-1.955.338l-.79-.79A7.4 7.4 0 0 1 8 2.5C13 2.5 16 8 16 8s-.564 1.033-1.63 2.31z"/>
  <path d="M13.854 13.146a.5.5 0 0 1-.708.708l-11-11a.5.5 0 1 1 .708-.708z"/>
</svg>
